<?xml version="1.0" encoding="utf-8"?>
<!-- Generator: Adobe Illustrator 27.7.0, SVG Export Plug-In . SVG Version: 6.00 Build 0)  -->
<svg version="1.1" id="Layer_1" xmlns="http://www.w3.org/2000/svg" xmlns:xlink="http://www.w3.org/1999/xlink" x="0px" y="0px"
	 viewBox="0 0 340 77" style="enable-background:new 0 0 340 77;" xml:space="preserve">
<style type="text/css">
	.st0{fill-rule:evenodd;clip-rule:evenodd;fill:#FF0000;}
	.st1{fill:#FF0000;}
</style>
<g>
	<path class="st0" d="M85.4,32.7l-16,28.8h-9.6l-5.3-29.5l-5.7,29.5H25.3c2.7,0,5.6-0.3,8.1-1.5c2.2-1,4-2.6,5.3-4.7
		c1.4-2.3,2.2-5.1,2.7-7.8c0.5-2.5,0.8-5.6-0.3-8c-0.5-1.1-1.2-1.9-2.1-2.4c0.4-0.2,0.7-0.5,1-0.8c1.2-1.1,2.2-2.4,2.8-3.9
		c0.7-1.6,1.1-3.4,1.5-5.1c0.4-1.9,0.6-4,0.3-5.9c-0.3-1.6-0.9-3.1-2-4.2c-1.1-1.1-2.5-1.8-4-2.2c-1.8-0.5-3.7-0.6-5.6-0.6h30
		l4.8,29.6l16-29.6H100l-9.1,47.1H79.8L85.4,32.7z M19.5,25.7l-1.4,7.1h7.4c1.1,0,2.4,0,3.4-0.3c0.6-0.2,1.1-0.5,1.4-1
		c0.5-0.8,0.8-2,1-2.9c0.1-0.4,0.3-2.1,0-2.4c-0.3-0.4-1.9-0.4-2.4-0.4H19.5z M16.2,42.4l-1.5,8.1h7.4c1.2,0,2.7,0,3.9-0.3
		c0.7-0.2,1.3-0.5,1.8-1.1c0.6-0.8,1-2.1,1.2-3.1c0.1-0.5,0.4-2.5,0-2.9c-0.6-0.6-2.7-0.6-3.4-0.6H16.2z"/>
	<path class="st0" d="M305.1,34.6l6.3,0c0,0.1,0,0.1,0,0.2c0,0.1,0,0.1,0,0.2c0,0.1-0.1,0.1-0.1,0.2c0,0.1,0,0.1,0,0.2
		c-0.1,0.1-0.1,0.2-0.2,0.4c0,0.1-0.1,0.2-0.1,0.3c-0.3,1.3-0.3,2.3,0.1,3c0.4,0.7,0.8,1,1.5,1.1h0.1h0.1h0.2c0.1,0,0.1,0,0.2,0
		c0.5-0.1,1.1-0.4,1.6-0.9c0.5-0.5,0.9-1.1,1.1-1.9c0.2-0.8,0.1-1.6-0.3-2.2c-0.4-0.6-1-1.2-1.7-1.8c-0.3-0.3-0.7-0.6-1-0.8
		c-0.4-0.3-0.7-0.6-1.1-0.9c-1.2-0.9-2.2-2-3-3.4c-0.8-1.3-1-3.2-0.4-5.4c0,0,0-0.1,0-0.1c0,0,0-0.1,0.1-0.1c0,0,0-0.1,0-0.1
		c0,0,0-0.1,0-0.1c0-0.1,0.1-0.3,0.1-0.4c0.1-0.1,0.1-0.3,0.1-0.4c0.7-1.7,1.9-3.3,3.8-4.7c1.8-1.4,3.9-2.1,6.3-2.1
		c2.3,0,4.2,0.7,5.6,2.1c1.4,1.4,1.8,3.7,1,6.8l-0.1,0.6l-6.3,0l0.2-0.8c0.2-1,0.2-1.8,0-2.4c-0.3-0.6-0.6-0.9-1.1-1
		c-0.1,0-0.2,0-0.3-0.1c-0.1,0-0.2,0-0.3,0h-0.1h-0.1c-0.5,0-1,0.3-1.5,0.7c-0.5,0.4-0.9,0.9-1,1.5c-0.2,0.9-0.1,1.7,0.4,2.3
		c0.5,0.6,1.1,1.2,1.9,1.7c0.3,0.2,0.6,0.5,0.9,0.7c0.3,0.2,0.7,0.4,1,0.7c1.1,0.8,2.1,1.8,2.9,3c0.8,1.2,1,3,0.5,5.3l-0.2,0.7
		c-0.8,3.4-2.3,5.8-4.5,7.1c-2.1,1.3-4.4,1.9-6.8,1.9l-0.9,0c-2.4-0.1-4.1-1-5-2.5c-0.9-1.5-1.1-3.7-0.4-6.4c0-0.1,0.1-0.3,0.1-0.4
		c0-0.1,0.1-0.3,0.1-0.4c0-0.1,0-0.1,0-0.2c0-0.1,0-0.1,0-0.2c0-0.1,0.1-0.2,0.1-0.3C305.1,34.8,305.1,34.7,305.1,34.6 M284.3,44.8
		l7.1-29.2l16,0l-1.3,5.5l-9.1,0l-1.4,5.6l8.5,0l-1.5,6.1l-8.5,0l-1.5,6.2l9.1,0l-1.4,5.8L284.3,44.8z M266.3,44.9l7.1-29.2l6.9,0
		l-5.7,23.4l8.2,0l-1.4,5.8L266.3,44.9z M258.8,33.2l7,0l-1.1,4.7c-0.5,2.2-1.6,3.9-3.3,5c-1.6,1.1-3.3,1.9-5.1,2.2
		c-0.5,0.1-1,0.2-1.5,0.2c-0.5,0-1,0.1-1.4,0.1c-3.2,0-5.4-0.7-6.6-2.2c-1.2-1.4-1.4-3.9-0.6-7.2l3.2-13c0.6-2.3,1.7-4.3,3.5-5.9
		c1.8-1.6,4.4-2.4,7.9-2.4c2.9,0,5,0.7,6.3,2.1c1.4,1.4,1.7,3.6,1,6.5l-0.6,2.5l-7.3,0l0.9-3.8c0.1-0.6,0-1-0.3-1.4
		c-0.3-0.3-0.8-0.5-1.3-0.6h-0.1h-0.1h-0.1h-0.1c-0.6,0.1-1.1,0.3-1.6,0.6c-0.5,0.4-0.9,0.9-1,1.6l-3.8,15.5
		c-0.2,0.7-0.1,1.2,0.3,1.6c0.3,0.4,0.8,0.7,1.3,0.7h0.1h0.1h0.2c0.1,0,0.1,0,0.1,0c0.6-0.1,1.2-0.3,1.8-0.8c0.6-0.5,1-1.2,1.2-2.1
		L258.8,33.2z M226.1,34.8l6.3,0c0,0.1,0,0.1,0,0.2c0,0.1,0,0.1,0,0.2c0,0.1-0.1,0.1-0.1,0.2c0,0.1,0,0.1,0,0.2
		c-0.1,0.1-0.1,0.2-0.2,0.4c0,0.1-0.1,0.2-0.1,0.3c-0.3,1.3-0.3,2.3,0,3c0.4,0.7,0.8,1,1.5,1h0.1h0.1h0.2c0.1,0,0.1,0,0.2-0.1
		c0.5-0.1,1.1-0.4,1.6-0.9c0.5-0.5,0.9-1.1,1.1-2c0.2-0.8,0.1-1.6-0.3-2.2c-0.4-0.6-1-1.2-1.7-1.7c-0.3-0.3-0.7-0.6-1.1-0.8
		c-0.4-0.3-0.7-0.6-1.1-0.9c-1.2-0.9-2.2-2-3-3.4c-0.8-1.3-1-3.2-0.4-5.4c0,0,0-0.1,0-0.1c0,0,0-0.1,0.1-0.1c0,0,0-0.1,0-0.1
		c0,0,0-0.1,0-0.1c0-0.1,0.1-0.3,0.1-0.4c0-0.1,0.1-0.3,0.1-0.4c0.7-1.7,1.9-3.3,3.8-4.7c1.8-1.4,3.9-2.1,6.3-2.1
		c2.3,0,4.2,0.7,5.6,2.1c1.4,1.4,1.8,3.7,1,6.8l-0.1,0.6l-6.3,0l0.2-0.8c0.3-1,0.2-1.8,0-2.4c-0.3-0.6-0.6-0.9-1.1-1
		c-0.1,0-0.2,0-0.3-0.1c-0.1,0-0.2,0-0.2,0h-0.1h-0.1c-0.5,0-1,0.2-1.5,0.7c-0.5,0.4-0.9,0.9-1,1.5c-0.2,0.9-0.1,1.7,0.4,2.3
		c0.5,0.6,1.1,1.2,1.9,1.7c0.3,0.2,0.6,0.5,0.9,0.7c0.3,0.2,0.7,0.4,1,0.7c1.1,0.8,2.1,1.8,2.9,3c0.8,1.2,1,3,0.5,5.3l-0.2,0.8
		c-0.8,3.4-2.3,5.8-4.5,7.1c-2.1,1.3-4.4,1.9-6.8,1.9l-0.9,0c-2.4-0.1-4.1-1-5-2.5c-0.9-1.5-1.1-3.7-0.4-6.4c0-0.1,0.1-0.3,0.1-0.4
		c0.1-0.1,0.1-0.3,0.1-0.4c0-0.1,0-0.1,0-0.2c0-0.1,0-0.1,0-0.2c0-0.1,0.1-0.2,0.1-0.3C226,35,226.1,34.9,226.1,34.8z M209.7,15.8
		l6.9,0L211.3,38c-0.2,0.8-0.1,1.4,0.2,1.8c0.3,0.4,0.7,0.7,1.2,0.7h0.1h0.1h0.2c0.1,0,0.1,0,0.1,0c0.5-0.1,1.1-0.3,1.6-0.8
		c0.6-0.5,0.9-1.1,1.1-2l5.3-21.9l7,0l-5,20.7c-0.9,3.5-2.2,5.9-4.1,7.2c-1.9,1.3-4.2,1.9-6.9,1.9c-3.2,0-5.5-0.6-6.8-1.9
		c-1.3-1.3-1.7-3.4-1-6.3L209.7,15.8z M172,45.1l7.1-29.2l9.7,0l-0.9,17.5l7.8-17.5l9.4,0L198.1,45l-6.3,0l6.1-22.5L187.5,45l-4.8,0
		l0.5-22.5L178.7,45L172,45.1z M161.7,42.6c-0.3,0.9-1.2,1.6-2.6,2.2c-1.4,0.6-2.9,1-4.4,1h-0.2h-0.2c-1.6-0.1-3-0.7-4.1-2
		c-1.1-1.2-1.2-3.4-0.5-6.4l3.5-14.2c0.6-2.6,1.9-4.6,3.6-6.1c1.8-1.5,4.3-2.2,7.5-2.2c2.8,0,4.9,0.7,6.2,2.1
		c1.3,1.4,1.6,3.5,0.9,6.2l-0.6,2.5l-7,0l0.9-3.8c0.1-0.6,0-1-0.3-1.3c-0.4-0.3-0.8-0.4-1.3-0.4h-0.1h-0.1c-0.6,0.1-1.2,0.3-1.7,0.6
		c-0.6,0.3-0.9,0.8-1,1.4l-3.8,15.8c-0.2,0.8-0.1,1.4,0.3,1.8c0.4,0.4,0.8,0.7,1.4,0.7h0.1h0.1h0.2h0.1c0.6-0.1,1.1-0.3,1.6-0.7
		c0.5-0.4,0.9-0.9,1-1.6l0.9-3.8l-2.4,0l1.3-5.2l9.1,0L166,45.1l-4.6,0L161.7,42.6z M137.1,45.2l7.1-29.2l6.9,0L144,45.1L137.1,45.2
		z M125.4,27.4c1.7,0,2.9-0.2,3.7-0.7c0.8-0.5,1.4-1.5,1.8-3.1c0.2-0.8,0.1-1.4-0.2-1.8c-0.3-0.4-0.8-0.7-1.6-0.7l-2.2,0L125.4,27.4
		z M122.3,40c1.7,0,3-0.2,4-0.6c1-0.4,1.7-1.4,2.1-3.1c0.4-1.6,0.1-2.6-0.7-3c-0.9-0.4-2-0.7-3.6-0.8L122.3,40z M114.4,45.2
		l7.1-29.2l9.5,0c2.2,0,4.1,0.5,5.7,1.5c1.6,1,2,2.8,1.4,5.4c-0.4,1.7-1,3-1.7,3.9c-0.8,0.9-1.5,1.6-2.2,2c-0.3,0.2-0.6,0.3-0.9,0.4
		c-0.3,0.1-0.5,0.2-0.7,0.2c1.3,0.8,2.2,1.6,2.7,2.6c0.4,1,0.4,2.5-0.1,4.5c-0.7,2.7-1.8,4.9-3.6,6.3c-1.7,1.5-4.2,2.2-7.3,2.2
		L114.4,45.2z"/>
	<path class="st1" d="M114.1,48.7L111.6,61h1.9l1.7-8.5l9,9l2.4-12.2H125l-1.7,8.6L114.1,48.7z M151.7,49.3l-1.4,7.1
		c-0.5,2.2-2.2,3.4-4.3,3.4c-2.6-0.1-3.1-1.9-2.8-3.6l1.4-7h-1.8l-1.5,7.6c-0.2,1.6,0.4,4,4.2,4.3h0.3c3.1,0,5.7-1.9,6.2-4.6
		l1.5-7.4H151.7z M171.6,50.7L169.5,61h2l2.1-10.3h3.3l0.3-1.4h-8.7l-0.3,1.4H171.6z M192.8,49.3L190.4,61h1.8l1-4.9h0.8l3.2,4.9
		h2.3l-3.7-5c2-0.3,3.9-1.3,4.3-3.5c0.3-1.3-0.7-3-3.2-3.2H192.8z M194.3,50.7h0.5c3,0,3.7,1,3.5,2.1l0,0.2c-0.3,1.6-2,2-4.8,2
		L194.3,50.7z M217,49.3L214.6,61h1.8l2.4-11.7H217z M237.1,50.7L235,61h2l2.1-10.3h3.3l0.3-1.4h-8.7l-0.3,1.4H237.1z M258.1,49.3
		L255.8,61h1.8l2.3-11.7H258.1z M287.9,55.1l-0.1,0.3c-0.4,1.8-2.5,4.5-6.4,4.5c-0.1,0-0.1,0-0.2,0c-3.9-0.1-5.4-2.3-4.9-4.6
		c0-0.1,0.1-0.2,0.1-0.3c0.6-2.4,3.5-4.6,6.7-4.6h0.3C285.4,50.5,288.4,51.5,287.9,55.1z M274.6,55c0,0.1-0.1,0.2-0.1,0.3
		c-0.5,2.5,1.1,6,5.9,6h0.3c4.8,0,8.4-2.6,9.1-6.3c0.5-2.6-1.8-5.9-6.2-5.9C279.5,49,275.8,51.1,274.6,55z M306.4,48.7L303.9,61h1.9
		l1.7-8.5l9,9l2.5-12.2h-1.8l-1.7,8.6L306.4,48.7z"/>
	<path class="st1" d="M316.6,61.6l-0.1-0.1l-8.9-8.8l-1.7,8.4h-2.1l0-0.1l2.5-12.5l0.1,0.1l9,9.1l1.7-8.5h2l0,0.1L316.6,61.6z
		 M307.5,52.3l0.1,0.1l8.9,8.8l2.4-11.8h-1.6l-1.8,8.7l-0.1-0.1l-9-9.1l-2.4,12h1.7L307.5,52.3z M124.3,61.6l-0.1-0.1l-8.9-8.8
		l-1.7,8.4h-2.1l0-0.1l2.5-12.5l0.1,0.1l9,9.1l1.7-8.5h2l0,0.1L124.3,61.6z M115.2,52.3l0.1,0.1l8.9,8.8l2.4-11.8H125l-1.8,8.7
		l-0.1-0.1l-9-9.1l-2.4,12h1.7L115.2,52.3z M280.7,61.3h-0.3c-2.8,0-4.2-1.1-5-2.1c-0.9-1.1-1.3-2.7-1-4c0-0.1,0-0.1,0.1-0.2
		c0,0,0-0.1,0-0.1c1.2-3.7,4.7-6,9.1-6c2.2,0,4.1,0.8,5.2,2.3c0.9,1.1,1.3,2.5,1,3.7C289.1,58.8,285.4,61.3,280.7,61.3z M283.6,49.1
		c-4.3,0-7.8,2.3-8.9,5.8c0,0,0,0.1,0,0.1c0,0,0,0.1,0,0.1c-0.3,1.3,0.1,2.8,1,3.9c0.7,0.9,2.2,2,4.8,2h0.3c4.6,0,8.3-2.5,9-6.2
		c0.2-1.2-0.1-2.5-1-3.6C287.5,49.9,285.7,49.1,283.6,49.1z M145.8,61.3h-0.3c-1.6-0.1-2.8-0.6-3.6-1.5c-0.8-1-0.9-2.3-0.8-2.9
		l1.5-7.7h2l0,0.1l-1.4,7c-0.2,1-0.1,1.9,0.4,2.5c0.5,0.6,1.2,0.9,2.3,1c2.2,0,3.8-1.3,4.2-3.4l1.5-7.2h2l0,0.1l-1.5,7.4
		C151.6,59.4,149,61.3,145.8,61.3z M143,49.4l-1.5,7.5c-0.1,0.8,0,1.9,0.7,2.8c0.7,0.8,1.8,1.3,3.4,1.4h0.2c3,0,5.6-1.9,6.1-4.5
		l1.5-7.2h-1.6l-1.4,7c-0.4,2.2-2.1,3.5-4.4,3.5c-1.1-0.1-1.9-0.4-2.4-1.1c-0.5-0.7-0.7-1.6-0.5-2.6l1.4-6.9H143z M257.6,61.1h-2
		l0-0.1l2.4-11.7h2l0,0.1L257.6,61.1z M255.9,60.9h1.6l2.3-11.5h-1.6L255.9,60.9z M237.1,61.1h-2.2l0-0.1l2.1-10.2h-3.4l0.3-1.6h8.9
		l-0.3,1.6h-3.3L237.1,61.1z M235.2,60.9h1.8l2.1-10.3h3.3l0.2-1.1H234l-0.2,1.1h3.4l0,0.1L235.2,60.9z M216.5,61.1h-2l0-0.1
		l2.4-11.7h2l0,0.1L216.5,61.1z M214.7,60.9h1.6l2.3-11.5H217L214.7,60.9z M199.7,61.1h-2.5l0,0l-3.2-4.9h-0.6l-1,4.9h-2l0-0.1
		l2.4-11.7h4.2c1.2,0.1,2.3,0.5,2.9,1.3c0.4,0.6,0.6,1.3,0.5,2c-0.4,1.9-1.9,3.2-4.2,3.5L199.7,61.1z M197.3,60.9h2l-3.6-5l0.2,0
		c2.3-0.3,3.8-1.5,4.2-3.4c0.1-0.6,0-1.3-0.5-1.8c-0.6-0.7-1.5-1.2-2.7-1.2h-4l-2.3,11.5h1.6l1-4.9h0.9l0,0L197.3,60.9z M171.6,61.1
		h-2.2l0-0.1l2-10.2H168l0.3-1.6h8.9l0,0.1l-0.3,1.4h-3.3L171.6,61.1z M169.6,60.9h1.8l2.1-10.3h3.3l0.2-1.1h-8.5l-0.2,1.1h3.4
		l0,0.1L169.6,60.9z M281.5,60c-0.1,0-0.1,0-0.1,0c0,0-0.1,0-0.1,0c-2-0.1-3.5-0.6-4.4-1.7c-0.6-0.8-0.9-1.9-0.7-3
		c0,0,0-0.1,0.1-0.2c0,0,0-0.1,0-0.1c0.6-2.5,3.7-4.6,6.8-4.6h0.3c1,0.1,2.9,0.4,3.9,1.7c0.7,0.8,0.9,1.8,0.8,3.1l-0.1,0.3
		C287.6,57.3,285.3,60,281.5,60z M283.3,50.5h-0.3c-3,0-6,2.1-6.6,4.5c0,0,0,0.1,0,0.1c0,0.1,0,0.1,0,0.1c-0.2,1.1,0,2.1,0.6,2.9
		c0.8,1,2.3,1.6,4.2,1.7c0.1,0,0.1,0,0.2,0c0,0,0,0,0,0c3.7,0,5.9-2.6,6.3-4.5l0.1-0.3c0.1-1.2-0.1-2.2-0.7-2.9
		C286.1,50.9,284.3,50.6,283.3,50.5z M193.4,55.1h-0.1l0-0.1l0.9-4.4h0.6c1.7,0,2.8,0.3,3.3,1c0.3,0.3,0.4,0.8,0.3,1.3l0,0.2
		C197.9,54.8,195.6,55.1,193.4,55.1z M194.4,50.8l-0.8,4.1c2.9,0,4.3-0.6,4.6-1.9l0-0.2c0.1-0.4,0-0.8-0.2-1.1
		c-0.5-0.6-1.5-0.9-3.1-0.9H194.4z"/>
</g>
</svg>
